<svg width="20" height="130" viewBox="0 0 20 130" fill="none" xmlns="http://www.w3.org/2000/svg">
<path d="M13.712 64.928C13.712 66.064 13.232 67.328 12.688 67.952L14.112 68.96C14.864 68.048 15.456 66.576 15.456 65.008C15.456 62.864 14.336 61.088 12.224 61.088C11.184 61.088 10.416 61.408 9.92 62.08C9.216 62.928 9.056 63.664 8.72 65.088C8.528 65.904 8.304 66.48 8.064 66.816C7.824 67.152 7.488 67.328 7.056 67.328C6.08 67.328 5.632 66.384 5.632 65.344C5.632 64.128 6.112 62.944 7.104 61.824L5.68 60.64C4.464 61.984 3.872 63.536 3.872 65.296C3.872 67.472 5.056 69.296 7.152 69.296C8.128 69.296 8.864 68.992 9.376 68.416C9.872 67.84 10.256 66.976 10.544 65.824C10.816 64.672 11.072 63.936 11.312 63.584C11.552 63.232 11.904 63.056 12.352 63.056C13.328 63.056 13.712 63.92 13.712 64.928ZM13.6 76.8781C13.6 78.4301 13.088 79.1501 12.224 80.0621L13.536 81.2621C14.816 80.0941 15.456 78.6381 15.456 76.9101C15.456 75.1821 14.896 73.7421 13.792 72.6061C12.672 71.4701 11.296 70.9101 9.632 70.9101C6.288 70.9101 3.872 73.4381 3.872 76.7821C3.872 78.4781 4.528 79.9181 5.84 81.1021L7.088 79.8861C6.24 78.9901 5.712 78.2541 5.712 76.7341C5.712 75.6781 6.08 74.7821 6.848 74.0141C7.616 73.2461 8.56 72.8781 9.696 72.8781C11.952 72.8781 13.6 74.6221 13.6 76.8781ZM15.184 87.5714L15.184 83.4114L4 83.4114L4 85.2994L7.76 85.2994L7.76 87.7794L4 90.4514L4 92.8514L8.064 89.9234C8.544 91.5234 9.696 92.3394 11.552 92.3394C14.384 92.3394 15.184 90.6114 15.184 87.5714ZM9.472 87.6514L9.472 85.2994L13.472 85.2994L13.472 87.6994C13.472 89.4914 13.2 90.4034 11.552 90.4034C9.872 90.4034 9.472 89.5074 9.472 87.6514ZM9.664 104.172C7.44 104.172 5.616 102.428 5.616 100.22C5.616 97.996 7.44 96.268 9.664 96.268C11.888 96.268 13.728 97.996 13.728 100.22C13.728 102.428 11.888 104.172 9.664 104.172ZM3.888 100.22C3.888 101.884 4.432 103.276 5.536 104.412C6.64 105.532 8.016 106.108 9.664 106.108C11.312 106.108 12.688 105.532 13.792 104.412C14.896 103.276 15.456 101.884 15.456 100.22C15.456 98.556 14.896 97.148 13.792 96.028C12.688 94.892 11.312 94.332 9.664 94.332C8.016 94.332 6.64 94.892 5.536 96.028C4.432 97.148 3.888 98.556 3.888 100.22ZM9.664 117.61C7.44 117.61 5.616 115.865 5.616 113.657C5.616 111.433 7.44 109.705 9.664 109.705C11.888 109.705 13.728 111.434 13.728 113.657C13.728 115.866 11.888 117.61 9.664 117.61ZM3.888 113.657C3.888 115.322 4.432 116.713 5.536 117.85C6.64 118.969 8.016 119.546 9.664 119.546C11.312 119.546 12.688 118.97 13.792 117.85C14.896 116.713 15.456 115.322 15.456 113.658C15.456 111.994 14.896 110.586 13.792 109.465C12.688 108.329 11.312 107.769 9.664 107.769C8.016 107.769 6.64 108.329 5.536 109.465C4.432 110.585 3.888 111.993 3.888 113.657ZM4 121.927L4 128.919L5.792 128.919L5.792 123.815L15.184 123.815L15.184 121.927L4 121.927Z" fill="white"/>
<path d="M8.5 0V49L18 39" stroke="white"/>
</svg>
